<svg width="100" height="100" viewBox="0 0 100 100" fill="none" xmlns="http://www.w3.org/2000/svg">
<rect width="100" height="100" rx="14" fill="#1F1F1F"/>
<path d="M58.4844 43.1211C58.4844 44.5013 58.1393 45.7253 57.4492 46.793C56.7591 47.8607 55.8086 48.7135 54.5977 49.3516C55.9779 50.0156 57.0716 50.9336 57.8789 52.1055C58.6862 53.2643 59.0898 54.6315 59.0898 56.207C59.0898 58.7331 58.2305 60.7318 56.5117 62.2031C54.793 63.6615 52.4557 64.3906 49.5 64.3906C46.5443 64.3906 44.2005 63.6549 42.4688 62.1836C40.737 60.7122 39.8711 58.7201 39.8711 56.207C39.8711 54.6315 40.2747 53.2578 41.082 52.0859C41.8893 50.9141 42.9766 50.0026 44.3438 49.3516C43.1328 48.7135 42.1823 47.8607 41.4922 46.793C40.8151 45.7253 40.4766 44.5013 40.4766 43.1211C40.4766 40.6992 41.2839 38.7721 42.8984 37.3398C44.513 35.8945 46.707 35.1719 49.4805 35.1719C52.2409 35.1719 54.4284 35.888 56.043 37.3203C57.6706 38.7396 58.4844 40.6732 58.4844 43.1211ZM53.4258 55.7969C53.4258 54.5599 53.0677 53.5703 52.3516 52.8281C51.6354 52.0859 50.6719 51.7148 49.4609 51.7148C48.263 51.7148 47.306 52.0859 46.5898 52.8281C45.8737 53.5573 45.5156 54.5469 45.5156 55.7969C45.5156 57.0078 45.8672 57.9844 46.5703 58.7266C47.2734 59.4688 48.25 59.8398 49.5 59.8398C50.724 59.8398 51.681 59.4818 52.3711 58.7656C53.0742 58.0495 53.4258 57.0599 53.4258 55.7969ZM52.8398 43.3945C52.8398 42.2878 52.5469 41.4023 51.9609 40.7383C51.375 40.0612 50.5482 39.7227 49.4805 39.7227C48.4258 39.7227 47.6055 40.0482 47.0195 40.6992C46.4336 41.3503 46.1406 42.2487 46.1406 43.3945C46.1406 44.5273 46.4336 45.4388 47.0195 46.1289C47.6055 46.819 48.4323 47.1641 49.5 47.1641C50.5677 47.1641 51.388 46.819 51.9609 46.1289C52.5469 45.4388 52.8398 44.5273 52.8398 43.3945Z" fill="white"/>
</svg>
