<svg width="100" height="100" viewBox="0 0 100 100" fill="none" xmlns="http://www.w3.org/2000/svg">
<rect width="100" height="100" rx="14" fill="#1F1F1F"/>
<path d="M41.6758 64H36.0312V42.2422L29.293 44.332V39.7422L41.0703 35.5234H41.6758V64ZM51.7734 50.0156L53.4141 35.5625H69.3516V40.2695H58.043L57.3398 46.3828C58.681 45.6667 60.1068 45.3086 61.6172 45.3086C64.3255 45.3086 66.4479 46.1484 67.9844 47.8281C69.5208 49.5078 70.2891 51.8581 70.2891 54.8789C70.2891 56.7148 69.8984 58.362 69.1172 59.8203C68.349 61.2656 67.2422 62.3919 65.7969 63.1992C64.3516 63.9935 62.6458 64.3906 60.6797 64.3906C58.9609 64.3906 57.3659 64.0456 55.8945 63.3555C54.4232 62.6523 53.2578 61.6693 52.3984 60.4062C51.5521 59.1432 51.1029 57.7044 51.0508 56.0898H56.6367C56.7539 57.2747 57.1641 58.1992 57.8672 58.8633C58.5833 59.5143 59.5143 59.8398 60.6602 59.8398C61.9362 59.8398 62.9193 59.3841 63.6094 58.4727C64.2995 57.5482 64.6445 56.2461 64.6445 54.5664C64.6445 52.9518 64.2474 51.7148 63.4531 50.8555C62.6589 49.9961 61.5326 49.5664 60.0742 49.5664C58.7331 49.5664 57.6458 49.918 56.8125 50.6211L56.2656 51.1289L51.7734 50.0156Z" fill="white"/>
</svg>
