<svg width="100" height="100" viewBox="0 0 100 100" fill="none" xmlns="http://www.w3.org/2000/svg">
<rect width="100" height="100" rx="14" fill="#1F1F1F"/>
<path d="M40.7891 50.0156L42.4297 35.5625H58.3672V40.2695H47.0586L46.3555 46.3828C47.6966 45.6667 49.1224 45.3086 50.6328 45.3086C53.3411 45.3086 55.4635 46.1484 57 47.8281C58.5365 49.5078 59.3047 51.8581 59.3047 54.8789C59.3047 56.7148 58.9141 58.362 58.1328 59.8203C57.3646 61.2656 56.2578 62.3919 54.8125 63.1992C53.3672 63.9935 51.6615 64.3906 49.6953 64.3906C47.9766 64.3906 46.3815 64.0456 44.9102 63.3555C43.4388 62.6523 42.2734 61.6693 41.4141 60.4062C40.5677 59.1432 40.1185 57.7044 40.0664 56.0898H45.6523C45.7695 57.2747 46.1797 58.1992 46.8828 58.8633C47.599 59.5143 48.5299 59.8398 49.6758 59.8398C50.9518 59.8398 51.9349 59.3841 52.625 58.4727C53.3151 57.5482 53.6602 56.2461 53.6602 54.5664C53.6602 52.9518 53.263 51.7148 52.4688 50.8555C51.6745 49.9961 50.5482 49.5664 49.0898 49.5664C47.7487 49.5664 46.6615 49.918 45.8281 50.6211L45.2812 51.1289L40.7891 50.0156Z" fill="white"/>
</svg>
