<svg width="100" height="100" viewBox="0 0 100 100" fill="none" xmlns="http://www.w3.org/2000/svg">
<rect width="100" height="100" rx="14" fill="#1F1F1F"/>
<path d="M53.1523 52.6328C51.681 54.0781 49.9622 54.8008 47.9961 54.8008C45.4831 54.8008 43.4714 53.9414 41.9609 52.2227C40.4505 50.4909 39.6953 48.1602 39.6953 45.2305C39.6953 43.3685 40.099 41.6628 40.9062 40.1133C41.7266 38.5508 42.8659 37.3398 44.3242 36.4805C45.7826 35.6081 47.4232 35.1719 49.2461 35.1719C51.1211 35.1719 52.7878 35.6406 54.2461 36.5781C55.7044 37.5156 56.8372 38.8633 57.6445 40.6211C58.4518 42.3789 58.862 44.3906 58.875 46.6562V48.7461C58.875 53.4857 57.6966 57.2096 55.3398 59.918C52.9831 62.6263 49.6432 64.0716 45.3203 64.2539L43.9336 64.2734V59.5664L45.1836 59.5469C50.0924 59.3255 52.7487 57.0208 53.1523 52.6328ZM49.3828 50.4844C50.2943 50.4844 51.0755 50.25 51.7266 49.7812C52.3906 49.3125 52.8919 48.7461 53.2305 48.082V45.7578C53.2305 43.8438 52.8659 42.3594 52.1367 41.3047C51.4076 40.25 50.431 39.7227 49.207 39.7227C48.0742 39.7227 47.1432 40.2435 46.4141 41.2852C45.6849 42.3138 45.3203 43.6094 45.3203 45.1719C45.3203 46.7214 45.6719 47.9974 46.375 49C47.0911 49.9896 48.0938 50.4844 49.3828 50.4844Z" fill="white"/>
</svg>
