<svg width="100" height="100" viewBox="0 0 100 100" fill="none" xmlns="http://www.w3.org/2000/svg">
<rect width="100" height="100" rx="14" fill="#1F1F1F"/>
<path d="M55.2617 35.2695V39.918H54.7148C52.1628 39.957 50.1055 40.6211 48.543 41.9102C46.9935 43.1992 46.0625 44.9896 45.75 47.2812C47.2604 45.7448 49.168 44.9766 51.4727 44.9766C53.9466 44.9766 55.9128 45.862 57.3711 47.6328C58.8294 49.4036 59.5586 51.7344 59.5586 54.625C59.5586 56.474 59.1549 58.1471 58.3477 59.6445C57.5534 61.1419 56.4206 62.3073 54.9492 63.1406C53.4909 63.974 51.8372 64.3906 49.9883 64.3906C46.9935 64.3906 44.5716 63.349 42.7227 61.2656C40.8867 59.1823 39.9688 56.4023 39.9688 52.9258V50.8945C39.9688 47.8086 40.5482 45.0872 41.707 42.7305C42.8789 40.3607 44.5521 38.5312 46.7266 37.2422C48.9141 35.9401 51.4466 35.2826 54.3242 35.2695H55.2617ZM49.7539 49.5078C48.8424 49.5078 48.0156 49.7487 47.2734 50.2305C46.5312 50.6992 45.9844 51.3242 45.6328 52.1055V53.8242C45.6328 55.7122 46.0039 57.1901 46.7461 58.2578C47.4883 59.3125 48.5299 59.8398 49.8711 59.8398C51.082 59.8398 52.0586 59.3646 52.8008 58.4141C53.556 57.4505 53.9336 56.207 53.9336 54.6836C53.9336 53.1341 53.556 51.8841 52.8008 50.9336C52.0456 49.9831 51.0299 49.5078 49.7539 49.5078Z" fill="white"/>
</svg>
