<svg width="100" height="100" viewBox="0 0 100 100" fill="none" xmlns="http://www.w3.org/2000/svg">
<rect width="100" height="100" rx="14" fill="#1F1F1F"/>
<path d="M41.6758 64H36.0312V42.2422L29.293 44.332V39.7422L41.0703 35.5234H41.6758V64ZM66.2461 35.2695V39.918H65.6992C63.1471 39.957 61.0898 40.6211 59.5273 41.9102C57.9779 43.1992 57.0469 44.9896 56.7344 47.2812C58.2448 45.7448 60.1523 44.9766 62.457 44.9766C64.931 44.9766 66.8971 45.862 68.3555 47.6328C69.8138 49.4036 70.543 51.7344 70.543 54.625C70.543 56.474 70.1393 58.1471 69.332 59.6445C68.5378 61.1419 67.4049 62.3073 65.9336 63.1406C64.4753 63.974 62.8216 64.3906 60.9727 64.3906C57.9779 64.3906 55.556 63.349 53.707 61.2656C51.8711 59.1823 50.9531 56.4023 50.9531 52.9258V50.8945C50.9531 47.8086 51.5326 45.0872 52.6914 42.7305C53.8633 40.3607 55.5365 38.5312 57.7109 37.2422C59.8984 35.9401 62.431 35.2826 65.3086 35.2695H66.2461ZM60.7383 49.5078C59.8268 49.5078 59 49.7487 58.2578 50.2305C57.5156 50.6992 56.9688 51.3242 56.6172 52.1055V53.8242C56.6172 55.7122 56.9883 57.1901 57.7305 58.2578C58.4727 59.3125 59.5143 59.8398 60.8555 59.8398C62.0664 59.8398 63.043 59.3646 63.7852 58.4141C64.5404 57.4505 64.918 56.207 64.918 54.6836C64.918 53.1341 64.5404 51.8841 63.7852 50.9336C63.0299 49.9831 62.0143 49.5078 60.7383 49.5078Z" fill="white"/>
</svg>
