<svg width="100" height="100" viewBox="0 0 100 100" fill="none" xmlns="http://www.w3.org/2000/svg">
<rect width="100" height="100" rx="14" fill="#1F1F1F"/>
<path d="M41.6758 64H36.0312V42.2422L29.293 44.332V39.7422L41.0703 35.5234H41.6758V64ZM70.0742 52.2422C70.0742 56.1745 69.2604 59.1823 67.6328 61.2656C66.0052 63.349 63.6224 64.3906 60.4844 64.3906C57.3854 64.3906 55.0156 63.3685 53.375 61.3242C51.7344 59.2799 50.8945 56.3503 50.8555 52.5352V47.3008C50.8555 43.3294 51.6758 40.3151 53.3164 38.2578C54.9701 36.2005 57.3464 35.1719 60.4453 35.1719C63.5443 35.1719 65.9141 36.194 67.5547 38.2383C69.1953 40.2695 70.0352 43.1927 70.0742 47.0078V52.2422ZM64.4297 46.5C64.4297 44.1432 64.1042 42.431 63.4531 41.3633C62.8151 40.2826 61.8125 39.7422 60.4453 39.7422C59.1172 39.7422 58.1341 40.2565 57.4961 41.2852C56.8711 42.3008 56.5391 43.8958 56.5 46.0703V52.9844C56.5 55.3021 56.8125 57.0273 57.4375 58.1602C58.0755 59.2799 59.0911 59.8398 60.4844 59.8398C61.8646 59.8398 62.8607 59.2995 63.4727 58.2188C64.0846 57.138 64.4036 55.4844 64.4297 53.2578V46.5Z" fill="white"/>
</svg>
