<svg width="100" height="100" viewBox="0 0 100 100" fill="none" xmlns="http://www.w3.org/2000/svg">
<rect width="100" height="100" rx="14" fill="#1F1F1F"/>
<path d="M41.6758 64H36.0312V42.2422L29.293 44.332V39.7422L41.0703 35.5234H41.6758V64ZM56.6758 47.2812H59.6836C61.1159 47.2812 62.1771 46.9232 62.8672 46.207C63.5573 45.4909 63.9023 44.5404 63.9023 43.3555C63.9023 42.2096 63.5573 41.3177 62.8672 40.6797C62.1901 40.0417 61.2526 39.7227 60.0547 39.7227C58.974 39.7227 58.069 40.0221 57.3398 40.6211C56.6107 41.207 56.2461 41.9753 56.2461 42.9258H50.6016C50.6016 41.4414 50.9987 40.1133 51.793 38.9414C52.6003 37.7565 53.7201 36.832 55.1523 36.168C56.5977 35.5039 58.1862 35.1719 59.918 35.1719C62.9258 35.1719 65.2826 35.8945 66.9883 37.3398C68.694 38.7721 69.5469 40.7513 69.5469 43.2773C69.5469 44.5794 69.1497 45.7773 68.3555 46.8711C67.5612 47.9648 66.5195 48.8047 65.2305 49.3906C66.832 49.9635 68.0234 50.8229 68.8047 51.9688C69.599 53.1146 69.9961 54.4688 69.9961 56.0312C69.9961 58.5573 69.0716 60.582 67.2227 62.1055C65.3867 63.6289 62.9518 64.3906 59.918 64.3906C57.0794 64.3906 54.7552 63.6419 52.9453 62.1445C51.1484 60.6471 50.25 58.668 50.25 56.207H55.8945C55.8945 57.2747 56.2917 58.1471 57.0859 58.8242C57.8932 59.5013 58.8828 59.8398 60.0547 59.8398C61.3958 59.8398 62.444 59.4883 63.1992 58.7852C63.9674 58.069 64.3516 57.125 64.3516 55.9531C64.3516 53.1146 62.7891 51.6953 59.6641 51.6953H56.6758V47.2812Z" fill="white"/>
</svg>
