<svg width="100" height="100" viewBox="0 0 100 100" fill="none" xmlns="http://www.w3.org/2000/svg">
<rect width="100" height="100" rx="14" fill="#1F1F1F"/>
<path d="M45.6914 47.2812H48.6992C50.1315 47.2812 51.1927 46.9232 51.8828 46.207C52.5729 45.4909 52.918 44.5404 52.918 43.3555C52.918 42.2096 52.5729 41.3177 51.8828 40.6797C51.2057 40.0417 50.2682 39.7227 49.0703 39.7227C47.9896 39.7227 47.0846 40.0221 46.3555 40.6211C45.6263 41.207 45.2617 41.9753 45.2617 42.9258H39.6172C39.6172 41.4414 40.0143 40.1133 40.8086 38.9414C41.6159 37.7565 42.7357 36.832 44.168 36.168C45.6133 35.5039 47.2018 35.1719 48.9336 35.1719C51.9414 35.1719 54.2982 35.8945 56.0039 37.3398C57.7096 38.7721 58.5625 40.7513 58.5625 43.2773C58.5625 44.5794 58.1654 45.7773 57.3711 46.8711C56.5768 47.9648 55.5352 48.8047 54.2461 49.3906C55.8477 49.9635 57.0391 50.8229 57.8203 51.9688C58.6146 53.1146 59.0117 54.4688 59.0117 56.0312C59.0117 58.5573 58.0872 60.582 56.2383 62.1055C54.4023 63.6289 51.9674 64.3906 48.9336 64.3906C46.0951 64.3906 43.7708 63.6419 41.9609 62.1445C40.1641 60.6471 39.2656 58.668 39.2656 56.207H44.9102C44.9102 57.2747 45.3073 58.1471 46.1016 58.8242C46.9089 59.5013 47.8984 59.8398 49.0703 59.8398C50.4115 59.8398 51.4596 59.4883 52.2148 58.7852C52.9831 58.069 53.3672 57.125 53.3672 55.9531C53.3672 53.1146 51.8047 51.6953 48.6797 51.6953H45.6914V47.2812Z" fill="white"/>
</svg>
