<svg width="100" height="100" viewBox="0 0 100 100" fill="none" xmlns="http://www.w3.org/2000/svg">
<rect width="100" height="100" rx="14" fill="#1F1F1F"/>
<path d="M41.6758 64H36.0312V42.2422L29.293 44.332V39.7422L41.0703 35.5234H41.6758V64ZM70.4258 64H50.9336V60.1328L60.1328 50.3281C61.3958 48.9479 62.3268 47.7435 62.9258 46.7148C63.5378 45.6862 63.8438 44.7096 63.8438 43.7852C63.8438 42.5221 63.5247 41.5326 62.8867 40.8164C62.2487 40.0872 61.3372 39.7227 60.1523 39.7227C58.8763 39.7227 57.8672 40.1654 57.125 41.0508C56.3958 41.9232 56.0312 43.0755 56.0312 44.5078H50.3672C50.3672 42.776 50.7773 41.194 51.5977 39.7617C52.431 38.3294 53.6029 37.2096 55.1133 36.4023C56.6237 35.582 58.3359 35.1719 60.25 35.1719C63.1797 35.1719 65.4518 35.875 67.0664 37.2812C68.694 38.6875 69.5078 40.6732 69.5078 43.2383C69.5078 44.6445 69.1432 46.0768 68.4141 47.5352C67.6849 48.9935 66.4349 50.6927 64.6641 52.6328L58.1992 59.4492H70.4258V64Z" fill="white"/>
</svg>
