<svg width="100" height="100" viewBox="0 0 100 100" fill="none" xmlns="http://www.w3.org/2000/svg">
<rect width="100" height="100" rx="14" fill="#1F1F1F"/>
<path d="M59.4414 64H39.9492V60.1328L49.1484 50.3281C50.4115 48.9479 51.3424 47.7435 51.9414 46.7148C52.5534 45.6862 52.8594 44.7096 52.8594 43.7852C52.8594 42.5221 52.5404 41.5326 51.9023 40.8164C51.2643 40.0872 50.3529 39.7227 49.168 39.7227C47.8919 39.7227 46.8828 40.1654 46.1406 41.0508C45.4115 41.9232 45.0469 43.0755 45.0469 44.5078H39.3828C39.3828 42.776 39.793 41.194 40.6133 39.7617C41.4466 38.3294 42.6185 37.2096 44.1289 36.4023C45.6393 35.582 47.3516 35.1719 49.2656 35.1719C52.1953 35.1719 54.4674 35.875 56.082 37.2812C57.7096 38.6875 58.5234 40.6732 58.5234 43.2383C58.5234 44.6445 58.1589 46.0768 57.4297 47.5352C56.7005 48.9935 55.4505 50.6927 53.6797 52.6328L47.2148 59.4492H59.4414V64Z" fill="white"/>
</svg>
